<!DOCTYPE svg PUBLIC "-//W3C//DTD SVG 1.1//EN" "http://www.w3.org/Graphics/SVG/1.1/DTD/svg11.dtd">
<svg width="64px" height="64px" viewBox="0 0 1000 1000" data-name="Layer 2" id="SVGRepoEditor" xmlns="http://www.w3.org/2000/svg" fill="#1d212b" stroke="#1d212b" stroke-width="0">
<g id="SVGRepo_bgCarrier" stroke-width="0"/>
<defs>
<style>.cls-1{fill:none;stroke:#020202;stroke-linecap:round;stroke-miterlimit:10;stroke-width:22px;}</style>
</defs>
<path class="cls-1" d="M495.3,647.39,339.62,760.49a8,8,0,0,1-12.31-8.94l59.46-183a8,8,0,0,0-2.91-8.95L228.19,446.49a8,8,0,0,1,4.7-14.48H425.32a8,8,0,0,0,7.61-5.53l59.46-183a8,8,0,0,1,15.22,0l59.46,183a8,8,0,0,0,7.61,5.53H767.11a8,8,0,0,1,4.7,14.48L616.14,559.59a8,8,0,0,0-2.91,8.95l59.46,183a8,8,0,0,1-12.31,8.94l-95.89-72.22"/>
</svg>